<svg width="24" height="24" viewBox="0 0 24 24" fill="none" xmlns="http://www.w3.org/2000/svg">
<path fill-rule="evenodd" clip-rule="evenodd" d="M4.95297 2.375C4.51297 2.556 4.21297 2.882 4.07397 3.33C4.00297 3.558 3.99997 3.92 3.99997 12.356C3.99997 22.23 3.97197 21.365 4.30597 21.7C4.48597 21.879 4.76397 22 4.99997 22C5.23697 22 5.51397 21.88 5.69697 21.697C6.00397 21.39 5.99997 21.425 5.99997 18.88V16.655L12.59 13.801C14.8631 12.8202 17.1331 11.8322 19.4 10.837C19.687 10.693 19.968 10.4 20.107 10.1C20.203 9.893 20.219 9.81 20.218 9.5C20.218 9.19 20.202 9.106 20.104 8.891C19.984 8.63 19.684 8.306 19.447 8.184C19.265 8.089 6.08897 2.382 5.92397 2.326C5.68697 2.246 5.20897 2.27 4.95297 2.375ZM12.04 7.138C15.021 8.43 17.464 9.492 17.469 9.496C17.474 9.501 14.99 10.583 11.949 11.9C10.0355 12.728 8.12254 13.557 6.20997 14.387L5.99997 14.479V4.523L6.30997 4.656L12.04 7.138Z" fill="#224853"/>
</svg>
