<svg width="20" height="20" viewBox="0 0 20 20" fill="none" xmlns="http://www.w3.org/2000/svg">
<path fill-rule="evenodd" clip-rule="evenodd" d="M8.4 0.0335426C6.391 0.260543 4.672 1.76754 4.161 3.74954C3.92 4.68254 3.983 5.86454 4.32 6.74154C4.57442 7.39964 4.96225 7.99798 5.45908 8.49895C5.95592 8.99992 6.55103 9.39268 7.207 9.65254C8.298 10.0825 9.702 10.0825 10.793 9.65254C12.135 9.12454 13.223 8.01154 13.699 6.67754C14.096 5.56554 14.082 4.26154 13.663 3.19654C13.073 1.69554 11.778 0.543543 10.24 0.151543C9.63852 0.003407 9.01548 -0.0365488 8.4 0.0335426ZM9.86 2.11054C10.3378 2.26052 10.7719 2.52452 11.1249 2.87976C11.4779 3.235 11.7391 3.6708 11.886 4.14954C12.021 4.58354 12.021 5.39554 11.886 5.82954C11.7382 6.31182 11.4743 6.75051 11.1177 7.1072C10.761 7.46388 10.3223 7.7277 9.84 7.87554C9.406 8.01054 8.594 8.01054 8.16 7.87554C7.57 7.69154 7.107 7.38054 6.679 6.88054C6.42233 6.57148 6.23021 6.21411 6.114 5.82954C5.979 5.39554 5.979 4.58354 6.114 4.14954C6.455 3.05554 7.373 2.22854 8.471 2.02854C8.797 1.96854 9.546 2.01254 9.86 2.11054ZM16.673 6.05254C16.429 6.12754 16.15 6.40354 16.064 6.65554C16.017 6.79354 16 6.99654 16 7.41654V7.98954H15.447C14.753 7.98954 14.554 8.04154 14.306 8.28954C14.2103 8.37932 14.1341 8.48776 14.082 8.60815C14.0299 8.72855 14.003 8.85835 14.003 8.98954C14.003 9.12074 14.0299 9.25054 14.082 9.37093C14.1341 9.49133 14.2103 9.59976 14.306 9.68954C14.554 9.93754 14.753 9.98954 15.447 9.98954H16V10.5625C16 11.2545 16.048 11.4315 16.306 11.6895C16.486 11.8685 16.764 11.9895 17 11.9895C17.237 11.9895 17.514 11.8695 17.697 11.6865C17.948 11.4355 18 11.2385 18 10.5425V9.98954H18.553C19.249 9.98954 19.446 9.93754 19.697 9.68654C19.88 9.50354 20 9.22654 20 8.98954C20 8.75254 19.88 8.47554 19.697 8.29254C19.446 8.04154 19.249 7.98954 18.553 7.98954H18V7.43654C18 6.74054 17.948 6.54354 17.697 6.29254C17.418 6.01354 17.067 5.93154 16.673 6.05254ZM4.4 12.0335C2.391 12.2605 0.667 13.7725 0.162 15.7495C0.0379999 16.2345 0 16.7555 0 17.9805C0 19.3135 0.015 19.3985 0.306 19.6895C0.486 19.8685 0.764 19.9895 1 19.9895C1.223 19.9895 1.51 19.8695 1.679 19.7065C1.977 19.4165 1.976 19.4225 2.002 17.8295C2.025 16.4975 2.032 16.3925 2.117 16.1295C2.26873 15.652 2.53381 15.2183 2.88958 14.8655C3.24534 14.5127 3.68123 14.2513 4.16 14.1035L4.46 14.0095H13.54L13.84 14.1035C14.3188 14.2513 14.7547 14.5127 15.1104 14.8655C15.4662 15.2183 15.7313 15.652 15.883 16.1295C15.969 16.3925 15.976 16.4955 15.997 17.8295C16.023 19.4235 16.022 19.4155 16.321 19.7065C16.49 19.8695 16.777 19.9895 17 19.9895C17.237 19.9895 17.514 19.8695 17.697 19.6865C17.981 19.4015 18 19.2945 18 17.9605C18 16.7565 17.962 16.2345 17.839 15.7495C17.547 14.5995 16.775 13.5075 15.8 12.8625C15.045 12.3645 14.396 12.1245 13.552 12.0325C13.084 11.9805 4.855 11.9825 4.4 12.0335Z" fill="#8A9194"/>
</svg>
