<svg width="18" height="14" viewBox="0 0 18 14" fill="none" xmlns="http://www.w3.org/2000/svg">
<path fill-rule="evenodd" clip-rule="evenodd" d="M10.614 0.0576984C10.431 0.136698 10.204 0.351699 10.106 0.536699C9.99204 0.751698 9.98504 1.1957 10.092 1.4007C10.132 1.4777 11.085 2.4627 12.211 3.5907L14.257 5.6407H7.57404C0.0630369 5.6407 0.627037 5.6177 0.303037 5.9407C0.207376 6.03048 0.131131 6.13891 0.079011 6.25931C0.0268905 6.3797 0 6.50951 0 6.6407C0 6.77189 0.0268905 6.90169 0.079011 7.02209C0.131131 7.14248 0.207376 7.25092 0.303037 7.3407C0.627037 7.6637 0.0630369 7.6407 7.57404 7.6407H14.257L12.211 9.6907C11.085 10.8187 10.132 11.8037 10.092 11.8807C9.98504 12.0867 9.99204 12.5297 10.107 12.7467C10.22 12.9617 10.49 13.1907 10.695 13.2457C10.945 13.3137 11.314 13.2687 11.5 13.1497C11.682 13.0317 17.426 7.2797 17.54 7.1007C17.6 7.0067 17.617 6.9067 17.617 6.6407C17.617 6.3397 17.605 6.2827 17.511 6.1407C17.452 6.0527 16.075 4.6547 14.451 3.0337C11.227 -0.181302 11.436 -0.00030142 10.957 0.00269858C10.8405 0.00243882 10.7247 0.0210113 10.614 0.0576984Z" fill="#CCCFD0"/>
</svg>
